<?xml version="1.0" encoding="UTF-8" standalone="no"?>
<!DOCTYPE svg PUBLIC "-//W3C//DTD SVG 1.1//EN"
 "http://www.w3.org/Graphics/SVG/1.1/DTD/svg11.dtd">
<!-- Generated by graphviz version 12.2.1 (20241206.2353)
 -->
<!-- Title: G Pages: 1 -->
<svg width="1144pt" height="765pt"
 viewBox="0.00 0.00 1143.79 765.00" xmlns="http://www.w3.org/2000/svg" xmlns:xlink="http://www.w3.org/1999/xlink">
<g id="graph0" class="graph" transform="scale(1 1) rotate(0) translate(4 761)">
<title>G</title>
<polygon fill="#f9f9f9" stroke="none" points="-4,4 -4,-761 1139.79,-761 1139.79,4 -4,4"/>
<g id="clust1" class="cluster">
<title>cluster_1</title>
<polygon fill="#5dade2" fill-opacity="0.125490" stroke="#5dade2" stroke-width="2" points="42.45,-8 42.45,-532 1127.79,-532 1127.79,-8 42.45,-8"/>
<text text-anchor="middle" x="585.12" y="-514.7" font-family="Arial" font-size="14.00">root</text>
</g>
<g id="clust2" class="cluster">
<title>cluster_2</title>
<polygon fill="#3498db" fill-opacity="0.125490" stroke="#3498db" stroke-width="2" points="308.47,-88 308.47,-448 1119.79,-448 1119.79,-88 308.47,-88"/>
<text text-anchor="middle" x="714.13" y="-430.7" font-family="Arial" font-size="14.00">librocksdb&#45;sys</text>
</g>
<g id="clust3" class="cluster">
<title>cluster_3</title>
<polygon fill="#2e86c1" fill-opacity="0.125490" stroke="#2e86c1" stroke-width="2" points="799.2,-188 799.2,-272 901.9,-272 901.9,-188 799.2,-188"/>
<text text-anchor="middle" x="850.55" y="-254.7" font-family="Arial" font-size="14.00">snappy</text>
</g>
<g id="clust4" class="cluster">
<title>cluster_4</title>
<polygon fill="#2e86c1" fill-opacity="0.125490" stroke="#2e86c1" stroke-width="2" points="797.32,-280 797.32,-364 903.77,-364 903.77,-280 797.32,-280"/>
<text text-anchor="middle" x="850.55" y="-346.7" font-family="Arial" font-size="14.00">rocksdb</text>
</g>
<g id="clust5" class="cluster">
<title>cluster_legend</title>
<polygon fill="#f9f9f9" stroke="gray" stroke-width="2" stroke-dasharray="5,2" points="8,-540 8,-749 481.52,-749 481.52,-540 8,-540"/>
<text text-anchor="middle" x="244.76" y="-731.7" font-family="Arial" font-size="14.00">Legend</text>
</g>
<!-- n0 -->
<g id="node1" class="node">
<title>n0</title>
<polygon fill="#5dade2" stroke="black" stroke-width="1.5" points="116.9,-286.27 113.9,-290.27 92.9,-290.27 89.9,-286.27 50.45,-286.27 50.45,-241.72 116.9,-241.72 116.9,-286.27"/>
<text text-anchor="middle" x="83.67" y="-258.57" font-family="Arial" font-size="14.00">root</text>
</g>
<!-- n6 -->
<g id="node2" class="node">
<title>n6</title>
<ellipse fill="#eb984e" stroke="black" stroke-width="1.5" cx="380.82" cy="-48" rx="138.73" ry="31.5"/>
<text text-anchor="middle" x="380.82" y="-42.58" font-family="Arial" font-size="14.00">cargo (.): rocksdb v0.23.0</text>
</g>
<!-- n0&#45;&gt;n6 -->
<g id="edge6" class="edge">
<title>n0&#45;&gt;n6</title>
<path fill="none" stroke="blue" d="M117.31,-256.57C169.69,-256.57 264.79,-256.57 264.79,-256.57 264.79,-256.57 264.79,-74.94 264.79,-74.94"/>
<polygon fill="blue" stroke="blue" points="267.59,-74.94 264.79,-66.94 261.99,-74.94 267.59,-74.94"/>
<text text-anchor="middle" x="196.72" y="-157.5" font-family="Arial" font-size="10.00" fill="gray">Contain</text>
</g>
<!-- n2 -->
<g id="node3" class="node">
<title>n2</title>
<polygon fill="#3498db" stroke="black" stroke-width="1.5" points="445.17,-286.27 442.17,-290.27 421.17,-290.27 418.17,-286.27 316.47,-286.27 316.47,-241.72 445.17,-241.72 445.17,-286.27"/>
<text text-anchor="middle" x="380.82" y="-258.57" font-family="Arial" font-size="14.00">librocksdb&#45;sys</text>
</g>
<!-- n0&#45;&gt;n2 -->
<g id="edge2" class="edge">
<title>n0&#45;&gt;n2</title>
<path fill="none" stroke="blue" d="M117.18,-271.42C117.18,-271.42 306.65,-271.42 306.65,-271.42"/>
<polygon fill="blue" stroke="blue" points="306.65,-274.23 314.65,-271.43 306.65,-268.63 306.65,-274.23"/>
<text text-anchor="middle" x="196.72" y="-266.5" font-family="Arial" font-size="10.00" fill="gray">Contain</text>
</g>
<!-- n1 -->
<g id="node8" class="node">
<title>n1</title>
<polygon fill="#fadbd8" stroke="black" points="429.8,-500.27 325.85,-500.27 325.85,-455.73 435.8,-455.73 435.8,-494.27 429.8,-500.27"/>
<polyline fill="none" stroke="black" points="429.8,-500.27 429.8,-494.27"/>
<polyline fill="none" stroke="black" points="435.8,-494.27 429.8,-494.27"/>
<text text-anchor="middle" x="380.82" y="-472.57" font-family="Arial" font-size="14.00">Cargo.toml</text>
</g>
<!-- n0&#45;&gt;n1 -->
<g id="edge1" class="edge">
<title>n0&#45;&gt;n1</title>
<path fill="none" stroke="blue" d="M83.79,-286.5C83.79,-341.44 83.79,-478 83.79,-478 83.79,-478 316.14,-478 316.14,-478"/>
<polygon fill="blue" stroke="blue" points="316.14,-480.8 324.14,-478 316.14,-475.2 316.14,-480.8"/>
<text text-anchor="middle" x="196.72" y="-422.5" font-family="Arial" font-size="10.00" fill="gray">Contain</text>
</g>
<!-- n7 -->
<g id="node4" class="node">
<title>n7</title>
<ellipse fill="#eb984e" stroke="black" stroke-width="1.5" cx="850.55" cy="-128" rx="261.24" ry="31.5"/>
<text text-anchor="middle" x="850.55" y="-122.58" font-family="Arial" font-size="14.00">cargo (./librocksdb&#45;sys): librocksdb&#45;sys v0.17.2+9.10.0</text>
</g>
<!-- n2&#45;&gt;n7 -->
<g id="edge7" class="edge">
<title>n2&#45;&gt;n7</title>
<path fill="none" stroke="blue" d="M380.79,-241.24C380.79,-202.52 380.79,-128 380.79,-128 380.79,-128 579.37,-128 579.37,-128"/>
<polygon fill="blue" stroke="blue" points="579.37,-130.8 587.37,-128 579.37,-125.2 579.37,-130.8"/>
<text text-anchor="middle" x="554.43" y="-161.5" font-family="Arial" font-size="10.00" fill="gray">Contain</text>
</g>
<!-- n5 -->
<g id="node5" class="node">
<title>n5</title>
<polygon fill="#2e86c1" stroke="black" stroke-width="1.5" points="893.9,-240.28 890.9,-244.28 869.9,-244.28 866.9,-240.28 807.2,-240.28 807.2,-195.72 893.9,-195.72 893.9,-240.28"/>
<text text-anchor="middle" x="850.55" y="-212.57" font-family="Arial" font-size="14.00">snappy</text>
</g>
<!-- n2&#45;&gt;n5 -->
<g id="edge5" class="edge">
<title>n2&#45;&gt;n5</title>
<path fill="none" stroke="blue" d="M445.19,-264C573.9,-264 850.79,-264 850.79,-264 850.79,-264 850.79,-250.24 850.79,-250.24"/>
<polygon fill="blue" stroke="blue" points="853.59,-250.24 850.79,-242.24 847.99,-250.24 853.59,-250.24"/>
<text text-anchor="middle" x="554.43" y="-230.5" font-family="Arial" font-size="10.00" fill="gray">Contain</text>
</g>
<!-- n4 -->
<g id="node6" class="node">
<title>n4</title>
<polygon fill="#2e86c1" stroke="black" stroke-width="1.5" points="895.77,-332.27 892.77,-336.27 871.77,-336.27 868.77,-332.27 805.32,-332.27 805.32,-287.73 895.77,-287.73 895.77,-332.27"/>
<text text-anchor="middle" x="850.55" y="-304.57" font-family="Arial" font-size="14.00">rocksdb</text>
</g>
<!-- n2&#45;&gt;n4 -->
<g id="edge4" class="edge">
<title>n2&#45;&gt;n4</title>
<path fill="none" stroke="blue" d="M441.79,-286.73C441.79,-298.32 441.79,-310 441.79,-310 441.79,-310 795.34,-310 795.34,-310"/>
<polygon fill="blue" stroke="blue" points="795.34,-312.8 803.34,-310 795.34,-307.2 795.34,-312.8"/>
<text text-anchor="middle" x="554.43" y="-302.5" font-family="Arial" font-size="10.00" fill="gray">Contain</text>
</g>
<!-- n3 -->
<g id="node7" class="node">
<title>n3</title>
<polygon fill="#fadbd8" stroke="black" points="899.52,-416.27 795.57,-416.27 795.57,-371.73 905.52,-371.73 905.52,-410.27 899.52,-416.27"/>
<polyline fill="none" stroke="black" points="899.52,-416.27 899.52,-410.27"/>
<polyline fill="none" stroke="black" points="905.52,-410.27 899.52,-410.27"/>
<text text-anchor="middle" x="850.55" y="-388.57" font-family="Arial" font-size="14.00">Cargo.toml</text>
</g>
<!-- n2&#45;&gt;n3 -->
<g id="edge3" class="edge">
<title>n2&#45;&gt;n3</title>
<path fill="none" stroke="blue" d="M438.79,-286.64C438.79,-323.89 438.79,-394 438.79,-394 438.79,-394 785.93,-394 785.93,-394"/>
<polygon fill="blue" stroke="blue" points="785.93,-396.8 793.93,-394 785.93,-391.2 785.93,-396.8"/>
<text text-anchor="middle" x="554.43" y="-380.5" font-family="Arial" font-size="10.00" fill="gray">Contain</text>
</g>
<!-- dir -->
<g id="node9" class="node">
<title>dir</title>
<polygon fill="#5dade2" stroke="black" points="132.27,-605.27 129.27,-609.27 108.27,-609.27 105.27,-605.27 35.07,-605.27 35.07,-560.73 132.27,-560.73 132.27,-605.27"/>
<text text-anchor="middle" x="83.67" y="-577.58" font-family="Arial" font-size="14.00">Directory</text>
</g>
<!-- file -->
<g id="node10" class="node">
<title>file</title>
<polygon fill="#fadbd8" stroke="black" points="407.3,-592.27 348.35,-592.27 348.35,-547.73 413.3,-547.73 413.3,-586.27 407.3,-592.27"/>
<polyline fill="none" stroke="black" points="407.3,-592.27 407.3,-586.27"/>
<polyline fill="none" stroke="black" points="413.3,-586.27 407.3,-586.27"/>
<text text-anchor="middle" x="380.82" y="-564.58" font-family="Arial" font-size="14.00">File</text>
</g>
<!-- dir&#45;&gt;file -->
<g id="edge8" class="edge">
<title>dir&#45;&gt;file</title>
<path fill="none" stroke="blue" d="M132.74,-576.5C132.74,-576.5 336.72,-576.5 336.72,-576.5"/>
<polygon fill="blue" stroke="blue" points="336.72,-580 346.72,-576.5 336.72,-573 336.72,-580"/>
<text text-anchor="middle" x="196.72" y="-586.5" font-family="Arial" font-size="10.00" fill="gray">Contain</text>
</g>
<!-- pkg -->
<g id="node11" class="node">
<title>pkg</title>
<ellipse fill="#eb984e" stroke="black" cx="83.67" cy="-673" rx="67.67" ry="31.5"/>
<text text-anchor="middle" x="83.67" y="-667.58" font-family="Arial" font-size="14.00">Package</text>
</g>
<!-- ext -->
<g id="node12" class="node">
<title>ext</title>
<polygon fill="#ec7063" stroke="black" points="434.96,-717.55 326.69,-717.55 288.12,-628.45 473.52,-628.45 434.96,-717.55"/>
<text text-anchor="middle" x="380.82" y="-667.58" font-family="Arial" font-size="14.00">External</text>
</g>
<!-- pkg&#45;&gt;ext -->
<g id="edge9" class="edge">
<title>pkg&#45;&gt;ext</title>
<path fill="none" stroke="red" stroke-dasharray="5,2" d="M151.47,-673C151.47,-673 295.56,-673 295.56,-673"/>
<polygon fill="red" stroke="red" points="295.56,-676.5 305.56,-673 295.56,-669.5 295.56,-676.5"/>
<text text-anchor="middle" x="196.72" y="-675.5" font-family="Arial" font-size="10.00" fill="gray">Dependency</text>
</g>
</g>
</svg>
